<?xml version="1.0"?>
<mxfile host="Electron" modified="2022-07-22T05:19:29.553Z" agent="5.0 (X11; Linux x86_64) AppleWebKit/537.36 (KHTML, like Gecko) draw.io/18.1.3 Chrome/100.0.4896.143 Electron/18.2.3 Safari/537.36" etag="zLELKLcIod-eU8NL_5BX" compressed="false" version="18.1.3">
  <diagram id="0J3WiIqApofdVU8hqUDk" name="Page-1">
    <mxGraphModel dx="2" dy="1" grid="1" gridSize="10" guides="0" tooltips="1" connect="1" arrows="1" fold="1" page="1" pageScale="1" pageWidth="850" pageHeight="1100" math="0" shadow="0">
      <root>
        <mxCell id="0"/>
        <mxCell id="1" parent="0"/>
        <mxCell id="Y88-hwanvh4xNvrnzz5g-1" value="ex" style="rounded=0;whiteSpace=wrap;html=1;fontFamily=mono;" parent="1" vertex="1">
          <mxGeometry x="80" y="120" width="20" height="20" as="geometry"/>
        </mxCell>
        <mxCell id="Y88-hwanvh4xNvrnzz5g-2" value="3&lt;br&gt;1" style="text;html=1;align=left;verticalAlign=middle;resizable=0;points=[];autosize=1;strokeColor=none;fillColor=none;fontFamily=mono;" parent="1" vertex="1">
          <mxGeometry x="80" y="90" width="20" height="30" as="geometry"/>
        </mxCell>
        <mxCell id="Y88-hwanvh4xNvrnzz5g-5" value="sz" style="rounded=0;whiteSpace=wrap;html=1;fontFamily=mono;" parent="1" vertex="1">
          <mxGeometry x="100" y="120" width="20" height="20" as="geometry"/>
        </mxCell>
        <mxCell id="Y88-hwanvh4xNvrnzz5g-6" value="opc4" style="rounded=0;whiteSpace=wrap;html=1;fontFamily=mono;" parent="1" vertex="1">
          <mxGeometry x="120" y="120" width="40" height="20" as="geometry"/>
        </mxCell>
        <mxCell id="Y88-hwanvh4xNvrnzz5g-7" value="opr3" style="rounded=0;whiteSpace=wrap;html=1;fontFamily=mono;" parent="1" vertex="1">
          <mxGeometry x="160" y="120" width="60" height="20" as="geometry"/>
        </mxCell>
        <mxCell id="Y88-hwanvh4xNvrnzz5g-8" value="opr2" style="rounded=0;whiteSpace=wrap;html=1;fontFamily=mono;" parent="1" vertex="1">
          <mxGeometry x="220" y="120" width="60" height="20" as="geometry"/>
        </mxCell>
        <mxCell id="Y88-hwanvh4xNvrnzz5g-9" value="opr1" style="rounded=0;whiteSpace=wrap;html=1;fontFamily=mono;" parent="1" vertex="1">
          <mxGeometry x="280" y="120" width="60" height="20" as="geometry"/>
        </mxCell>
        <mxCell id="Y88-hwanvh4xNvrnzz5g-10" value="opr0" style="rounded=0;whiteSpace=wrap;html=1;fontFamily=mono;" parent="1" vertex="1">
          <mxGeometry x="340" y="120" width="60" height="20" as="geometry"/>
        </mxCell>
        <mxCell id="Y88-hwanvh4xNvrnzz5g-11" value="ex: extension:&lt;br&gt;&amp;nbsp; 00 unsign, 01 merge,&amp;nbsp; 10 sign,&amp;nbsp; &amp;nbsp; 11 reserve&lt;br&gt;sz: Size:&lt;br&gt;&amp;nbsp; 00 short8, 01 word16, 10 dword32, 11 qword64" style="text;html=1;align=left;verticalAlign=middle;resizable=0;points=[];autosize=1;strokeColor=none;fillColor=none;fontFamily=mono;" parent="1" vertex="1">
          <mxGeometry x="80" y="410" width="350" height="60" as="geometry"/>
        </mxCell>
        <mxCell id="Y88-hwanvh4xNvrnzz5g-16" value="opc4: [0b100,0b1111]: 12 4-opr insts" style="text;html=1;align=left;verticalAlign=middle;resizable=0;points=[];autosize=1;strokeColor=none;fillColor=none;fontFamily=mono;" parent="1" vertex="1">
          <mxGeometry x="80" y="140" width="280" height="20" as="geometry"/>
        </mxCell>
        <mxCell id="Y88-hwanvh4xNvrnzz5g-17" value="ex" style="rounded=0;whiteSpace=wrap;html=1;fontFamily=mono;" parent="1" vertex="1">
          <mxGeometry x="80" y="180" width="20" height="20" as="geometry"/>
        </mxCell>
        <mxCell id="Y88-hwanvh4xNvrnzz5g-18" value="sz" style="rounded=0;whiteSpace=wrap;html=1;fontFamily=mono;" parent="1" vertex="1">
          <mxGeometry x="100" y="180" width="20" height="20" as="geometry"/>
        </mxCell>
        <mxCell id="Y88-hwanvh4xNvrnzz5g-19" value="opc3" style="rounded=0;whiteSpace=wrap;html=1;fontFamily=mono;" parent="1" vertex="1">
          <mxGeometry x="140" y="180" width="80" height="20" as="geometry"/>
        </mxCell>
        <mxCell id="Y88-hwanvh4xNvrnzz5g-37" value="opc3: [1,0b11111111]: 255 3-opr insts" style="text;html=1;align=left;verticalAlign=middle;resizable=0;points=[];autosize=1;strokeColor=none;fillColor=none;fontFamily=mono;" parent="1" vertex="1">
          <mxGeometry x="80" y="200" width="280" height="20" as="geometry"/>
        </mxCell>
        <mxCell id="Y88-hwanvh4xNvrnzz5g-39" value="ex" style="rounded=0;whiteSpace=wrap;html=1;fontFamily=mono;" parent="1" vertex="1">
          <mxGeometry x="80" y="240" width="20" height="20" as="geometry"/>
        </mxCell>
        <mxCell id="Y88-hwanvh4xNvrnzz5g-40" value="sz" style="rounded=0;whiteSpace=wrap;html=1;fontFamily=mono;" parent="1" vertex="1">
          <mxGeometry x="100" y="240" width="20" height="20" as="geometry"/>
        </mxCell>
        <mxCell id="Y88-hwanvh4xNvrnzz5g-41" value="opc2" style="rounded=0;whiteSpace=wrap;html=1;fontFamily=mono;" parent="1" vertex="1">
          <mxGeometry x="220" y="240" width="60" height="20" as="geometry"/>
        </mxCell>
        <mxCell id="Y88-hwanvh4xNvrnzz5g-47" value="opr2" style="rounded=0;whiteSpace=wrap;html=1;fontFamily=mono;" parent="1" vertex="1">
          <mxGeometry x="220" y="180" width="60" height="20" as="geometry"/>
        </mxCell>
        <mxCell id="Y88-hwanvh4xNvrnzz5g-48" value="opr1" style="rounded=0;whiteSpace=wrap;html=1;fontFamily=mono;" parent="1" vertex="1">
          <mxGeometry x="280" y="180" width="60" height="20" as="geometry"/>
        </mxCell>
        <mxCell id="Y88-hwanvh4xNvrnzz5g-49" value="opr0" style="rounded=0;whiteSpace=wrap;html=1;fontFamily=mono;" parent="1" vertex="1">
          <mxGeometry x="340" y="180" width="60" height="20" as="geometry"/>
        </mxCell>
        <mxCell id="Y88-hwanvh4xNvrnzz5g-50" value="opr1" style="rounded=0;whiteSpace=wrap;html=1;fontFamily=mono;" parent="1" vertex="1">
          <mxGeometry x="280" y="240" width="60" height="20" as="geometry"/>
        </mxCell>
        <mxCell id="Y88-hwanvh4xNvrnzz5g-51" value="opr0" style="rounded=0;whiteSpace=wrap;html=1;fontFamily=mono;" parent="1" vertex="1">
          <mxGeometry x="340" y="240" width="60" height="20" as="geometry"/>
        </mxCell>
        <mxCell id="Y88-hwanvh4xNvrnzz5g-55" value="opc2: [1,0b111111]: 63 2-opr insts" style="text;html=1;align=left;verticalAlign=middle;resizable=0;points=[];autosize=1;strokeColor=none;fillColor=none;fontFamily=mono;" parent="1" vertex="1">
          <mxGeometry x="80" y="260" width="260" height="20" as="geometry"/>
        </mxCell>
        <mxCell id="Y88-hwanvh4xNvrnzz5g-56" value="ex" style="rounded=0;whiteSpace=wrap;html=1;fontFamily=mono;" parent="1" vertex="1">
          <mxGeometry x="80" y="300" width="20" height="20" as="geometry"/>
        </mxCell>
        <mxCell id="Y88-hwanvh4xNvrnzz5g-57" value="sz" style="rounded=0;whiteSpace=wrap;html=1;fontFamily=mono;" parent="1" vertex="1">
          <mxGeometry x="100" y="300" width="20" height="20" as="geometry"/>
        </mxCell>
        <mxCell id="Y88-hwanvh4xNvrnzz5g-58" value="opc1" style="rounded=0;whiteSpace=wrap;html=1;fontFamily=mono;" parent="1" vertex="1">
          <mxGeometry x="280" y="300" width="60" height="20" as="geometry"/>
        </mxCell>
        <mxCell id="Y88-hwanvh4xNvrnzz5g-59" value="opr0" style="rounded=0;whiteSpace=wrap;html=1;fontFamily=mono;" parent="1" vertex="1">
          <mxGeometry x="340" y="300" width="60" height="20" as="geometry"/>
        </mxCell>
        <mxCell id="Y88-hwanvh4xNvrnzz5g-62" value="opc1: [1,0b111111]: 63 1-opr insts" style="text;html=1;align=left;verticalAlign=middle;resizable=0;points=[];autosize=1;strokeColor=none;fillColor=none;fontFamily=mono;" parent="1" vertex="1">
          <mxGeometry x="80" y="320" width="260" height="20" as="geometry"/>
        </mxCell>
        <mxCell id="Y88-hwanvh4xNvrnzz5g-63" value="0" style="rounded=0;whiteSpace=wrap;html=1;fontFamily=mono;" parent="1" vertex="1">
          <mxGeometry x="120" y="240" width="10" height="20" as="geometry"/>
        </mxCell>
        <mxCell id="Y88-hwanvh4xNvrnzz5g-64" value="0" style="rounded=0;whiteSpace=wrap;html=1;fontFamily=mono;" parent="1" vertex="1">
          <mxGeometry x="130" y="240" width="10" height="20" as="geometry"/>
        </mxCell>
        <mxCell id="Y88-hwanvh4xNvrnzz5g-73" value="0" style="rounded=0;whiteSpace=wrap;html=1;fontFamily=mono;" parent="1" vertex="1">
          <mxGeometry x="120" y="180" width="10" height="20" as="geometry"/>
        </mxCell>
        <mxCell id="Y88-hwanvh4xNvrnzz5g-74" value="0" style="rounded=0;whiteSpace=wrap;html=1;fontFamily=mono;" parent="1" vertex="1">
          <mxGeometry x="130" y="180" width="10" height="20" as="geometry"/>
        </mxCell>
        <mxCell id="oeVIq9Vc4V-3KHkNWx2d-2" value="0" style="rounded=0;whiteSpace=wrap;html=1;fontFamily=mono;" parent="1" vertex="1">
          <mxGeometry x="140" y="240" width="10" height="20" as="geometry"/>
        </mxCell>
        <mxCell id="oeVIq9Vc4V-3KHkNWx2d-3" value="0" style="rounded=0;whiteSpace=wrap;html=1;fontFamily=mono;" parent="1" vertex="1">
          <mxGeometry x="150" y="240" width="10" height="20" as="geometry"/>
        </mxCell>
        <mxCell id="oeVIq9Vc4V-3KHkNWx2d-4" value="0" style="rounded=0;whiteSpace=wrap;html=1;fontFamily=mono;" parent="1" vertex="1">
          <mxGeometry x="160" y="240" width="10" height="20" as="geometry"/>
        </mxCell>
        <mxCell id="oeVIq9Vc4V-3KHkNWx2d-5" value="0" style="rounded=0;whiteSpace=wrap;html=1;fontFamily=mono;" parent="1" vertex="1">
          <mxGeometry x="170" y="240" width="10" height="20" as="geometry"/>
        </mxCell>
        <mxCell id="oeVIq9Vc4V-3KHkNWx2d-6" value="0" style="rounded=0;whiteSpace=wrap;html=1;fontFamily=mono;" parent="1" vertex="1">
          <mxGeometry x="180" y="240" width="10" height="20" as="geometry"/>
        </mxCell>
        <mxCell id="oeVIq9Vc4V-3KHkNWx2d-7" value="0" style="rounded=0;whiteSpace=wrap;html=1;fontFamily=mono;" parent="1" vertex="1">
          <mxGeometry x="190" y="240" width="10" height="20" as="geometry"/>
        </mxCell>
        <mxCell id="oeVIq9Vc4V-3KHkNWx2d-8" value="0" style="rounded=0;whiteSpace=wrap;html=1;fontFamily=mono;" parent="1" vertex="1">
          <mxGeometry x="200" y="240" width="10" height="20" as="geometry"/>
        </mxCell>
        <mxCell id="oeVIq9Vc4V-3KHkNWx2d-9" value="0" style="rounded=0;whiteSpace=wrap;html=1;fontFamily=mono;" parent="1" vertex="1">
          <mxGeometry x="210" y="240" width="10" height="20" as="geometry"/>
        </mxCell>
        <mxCell id="oeVIq9Vc4V-3KHkNWx2d-10" value="0" style="rounded=0;whiteSpace=wrap;html=1;fontFamily=mono;" parent="1" vertex="1">
          <mxGeometry x="120" y="300" width="10" height="20" as="geometry"/>
        </mxCell>
        <mxCell id="oeVIq9Vc4V-3KHkNWx2d-11" value="0" style="rounded=0;whiteSpace=wrap;html=1;fontFamily=mono;" parent="1" vertex="1">
          <mxGeometry x="130" y="300" width="10" height="20" as="geometry"/>
        </mxCell>
        <mxCell id="oeVIq9Vc4V-3KHkNWx2d-12" value="0" style="rounded=0;whiteSpace=wrap;html=1;fontFamily=mono;" parent="1" vertex="1">
          <mxGeometry x="140" y="300" width="10" height="20" as="geometry"/>
        </mxCell>
        <mxCell id="oeVIq9Vc4V-3KHkNWx2d-13" value="0" style="rounded=0;whiteSpace=wrap;html=1;fontFamily=mono;" parent="1" vertex="1">
          <mxGeometry x="150" y="300" width="10" height="20" as="geometry"/>
        </mxCell>
        <mxCell id="oeVIq9Vc4V-3KHkNWx2d-14" value="0" style="rounded=0;whiteSpace=wrap;html=1;fontFamily=mono;" parent="1" vertex="1">
          <mxGeometry x="160" y="300" width="10" height="20" as="geometry"/>
        </mxCell>
        <mxCell id="oeVIq9Vc4V-3KHkNWx2d-15" value="0" style="rounded=0;whiteSpace=wrap;html=1;fontFamily=mono;" parent="1" vertex="1">
          <mxGeometry x="170" y="300" width="10" height="20" as="geometry"/>
        </mxCell>
        <mxCell id="oeVIq9Vc4V-3KHkNWx2d-16" value="0" style="rounded=0;whiteSpace=wrap;html=1;fontFamily=mono;" parent="1" vertex="1">
          <mxGeometry x="180" y="300" width="10" height="20" as="geometry"/>
        </mxCell>
        <mxCell id="oeVIq9Vc4V-3KHkNWx2d-17" value="0" style="rounded=0;whiteSpace=wrap;html=1;fontFamily=mono;" parent="1" vertex="1">
          <mxGeometry x="190" y="300" width="10" height="20" as="geometry"/>
        </mxCell>
        <mxCell id="oeVIq9Vc4V-3KHkNWx2d-18" value="0" style="rounded=0;whiteSpace=wrap;html=1;fontFamily=mono;" parent="1" vertex="1">
          <mxGeometry x="200" y="300" width="10" height="20" as="geometry"/>
        </mxCell>
        <mxCell id="oeVIq9Vc4V-3KHkNWx2d-19" value="0" style="rounded=0;whiteSpace=wrap;html=1;fontFamily=mono;" parent="1" vertex="1">
          <mxGeometry x="210" y="300" width="10" height="20" as="geometry"/>
        </mxCell>
        <mxCell id="oeVIq9Vc4V-3KHkNWx2d-24" value="0" style="rounded=0;whiteSpace=wrap;html=1;fontFamily=mono;" parent="1" vertex="1">
          <mxGeometry x="220" y="300" width="10" height="20" as="geometry"/>
        </mxCell>
        <mxCell id="oeVIq9Vc4V-3KHkNWx2d-25" value="0" style="rounded=0;whiteSpace=wrap;html=1;fontFamily=mono;" parent="1" vertex="1">
          <mxGeometry x="230" y="300" width="10" height="20" as="geometry"/>
        </mxCell>
        <mxCell id="oeVIq9Vc4V-3KHkNWx2d-26" value="0" style="rounded=0;whiteSpace=wrap;html=1;fontFamily=mono;" parent="1" vertex="1">
          <mxGeometry x="240" y="300" width="10" height="20" as="geometry"/>
        </mxCell>
        <mxCell id="oeVIq9Vc4V-3KHkNWx2d-27" value="0" style="rounded=0;whiteSpace=wrap;html=1;fontFamily=mono;" parent="1" vertex="1">
          <mxGeometry x="250" y="300" width="10" height="20" as="geometry"/>
        </mxCell>
        <mxCell id="oeVIq9Vc4V-3KHkNWx2d-28" value="0" style="rounded=0;whiteSpace=wrap;html=1;fontFamily=mono;" parent="1" vertex="1">
          <mxGeometry x="260" y="300" width="10" height="20" as="geometry"/>
        </mxCell>
        <mxCell id="oeVIq9Vc4V-3KHkNWx2d-29" value="0" style="rounded=0;whiteSpace=wrap;html=1;fontFamily=mono;" parent="1" vertex="1">
          <mxGeometry x="270" y="300" width="10" height="20" as="geometry"/>
        </mxCell>
        <mxCell id="oeVIq9Vc4V-3KHkNWx2d-30" value="ex" style="rounded=0;whiteSpace=wrap;html=1;fontFamily=mono;" parent="1" vertex="1">
          <mxGeometry x="80" y="360" width="20" height="20" as="geometry"/>
        </mxCell>
        <mxCell id="oeVIq9Vc4V-3KHkNWx2d-31" value="sz" style="rounded=0;whiteSpace=wrap;html=1;fontFamily=mono;" parent="1" vertex="1">
          <mxGeometry x="100" y="360" width="20" height="20" as="geometry"/>
        </mxCell>
        <mxCell id="oeVIq9Vc4V-3KHkNWx2d-32" value="opc0" style="rounded=0;whiteSpace=wrap;html=1;fontFamily=mono;" parent="1" vertex="1">
          <mxGeometry x="340" y="360" width="60" height="20" as="geometry"/>
        </mxCell>
        <mxCell id="oeVIq9Vc4V-3KHkNWx2d-34" value="0" style="rounded=0;whiteSpace=wrap;html=1;fontFamily=mono;" parent="1" vertex="1">
          <mxGeometry x="120" y="360" width="10" height="20" as="geometry"/>
        </mxCell>
        <mxCell id="oeVIq9Vc4V-3KHkNWx2d-35" value="0" style="rounded=0;whiteSpace=wrap;html=1;fontFamily=mono;" parent="1" vertex="1">
          <mxGeometry x="130" y="360" width="10" height="20" as="geometry"/>
        </mxCell>
        <mxCell id="oeVIq9Vc4V-3KHkNWx2d-36" value="0" style="rounded=0;whiteSpace=wrap;html=1;fontFamily=mono;" parent="1" vertex="1">
          <mxGeometry x="140" y="360" width="10" height="20" as="geometry"/>
        </mxCell>
        <mxCell id="oeVIq9Vc4V-3KHkNWx2d-37" value="0" style="rounded=0;whiteSpace=wrap;html=1;fontFamily=mono;" parent="1" vertex="1">
          <mxGeometry x="150" y="360" width="10" height="20" as="geometry"/>
        </mxCell>
        <mxCell id="oeVIq9Vc4V-3KHkNWx2d-38" value="0" style="rounded=0;whiteSpace=wrap;html=1;fontFamily=mono;" parent="1" vertex="1">
          <mxGeometry x="160" y="360" width="10" height="20" as="geometry"/>
        </mxCell>
        <mxCell id="oeVIq9Vc4V-3KHkNWx2d-39" value="0" style="rounded=0;whiteSpace=wrap;html=1;fontFamily=mono;" parent="1" vertex="1">
          <mxGeometry x="170" y="360" width="10" height="20" as="geometry"/>
        </mxCell>
        <mxCell id="oeVIq9Vc4V-3KHkNWx2d-40" value="0" style="rounded=0;whiteSpace=wrap;html=1;fontFamily=mono;" parent="1" vertex="1">
          <mxGeometry x="180" y="360" width="10" height="20" as="geometry"/>
        </mxCell>
        <mxCell id="oeVIq9Vc4V-3KHkNWx2d-41" value="0" style="rounded=0;whiteSpace=wrap;html=1;fontFamily=mono;" parent="1" vertex="1">
          <mxGeometry x="190" y="360" width="10" height="20" as="geometry"/>
        </mxCell>
        <mxCell id="oeVIq9Vc4V-3KHkNWx2d-42" value="0" style="rounded=0;whiteSpace=wrap;html=1;fontFamily=mono;" parent="1" vertex="1">
          <mxGeometry x="200" y="360" width="10" height="20" as="geometry"/>
        </mxCell>
        <mxCell id="oeVIq9Vc4V-3KHkNWx2d-43" value="0" style="rounded=0;whiteSpace=wrap;html=1;fontFamily=mono;" parent="1" vertex="1">
          <mxGeometry x="210" y="360" width="10" height="20" as="geometry"/>
        </mxCell>
        <mxCell id="oeVIq9Vc4V-3KHkNWx2d-44" value="0" style="rounded=0;whiteSpace=wrap;html=1;fontFamily=mono;" parent="1" vertex="1">
          <mxGeometry x="220" y="360" width="10" height="20" as="geometry"/>
        </mxCell>
        <mxCell id="oeVIq9Vc4V-3KHkNWx2d-45" value="0" style="rounded=0;whiteSpace=wrap;html=1;fontFamily=mono;" parent="1" vertex="1">
          <mxGeometry x="230" y="360" width="10" height="20" as="geometry"/>
        </mxCell>
        <mxCell id="oeVIq9Vc4V-3KHkNWx2d-46" value="0" style="rounded=0;whiteSpace=wrap;html=1;fontFamily=mono;" parent="1" vertex="1">
          <mxGeometry x="240" y="360" width="10" height="20" as="geometry"/>
        </mxCell>
        <mxCell id="oeVIq9Vc4V-3KHkNWx2d-47" value="0" style="rounded=0;whiteSpace=wrap;html=1;fontFamily=mono;" parent="1" vertex="1">
          <mxGeometry x="250" y="360" width="10" height="20" as="geometry"/>
        </mxCell>
        <mxCell id="oeVIq9Vc4V-3KHkNWx2d-48" value="0" style="rounded=0;whiteSpace=wrap;html=1;fontFamily=mono;" parent="1" vertex="1">
          <mxGeometry x="260" y="360" width="10" height="20" as="geometry"/>
        </mxCell>
        <mxCell id="oeVIq9Vc4V-3KHkNWx2d-49" value="0" style="rounded=0;whiteSpace=wrap;html=1;fontFamily=mono;" parent="1" vertex="1">
          <mxGeometry x="270" y="360" width="10" height="20" as="geometry"/>
        </mxCell>
        <mxCell id="oeVIq9Vc4V-3KHkNWx2d-51" value="0" style="rounded=0;whiteSpace=wrap;html=1;fontFamily=mono;" parent="1" vertex="1">
          <mxGeometry x="280" y="360" width="10" height="20" as="geometry"/>
        </mxCell>
        <mxCell id="oeVIq9Vc4V-3KHkNWx2d-52" value="0" style="rounded=0;whiteSpace=wrap;html=1;fontFamily=mono;" parent="1" vertex="1">
          <mxGeometry x="290" y="360" width="10" height="20" as="geometry"/>
        </mxCell>
        <mxCell id="oeVIq9Vc4V-3KHkNWx2d-53" value="0" style="rounded=0;whiteSpace=wrap;html=1;fontFamily=mono;" parent="1" vertex="1">
          <mxGeometry x="300" y="360" width="10" height="20" as="geometry"/>
        </mxCell>
        <mxCell id="oeVIq9Vc4V-3KHkNWx2d-54" value="0" style="rounded=0;whiteSpace=wrap;html=1;fontFamily=mono;" parent="1" vertex="1">
          <mxGeometry x="310" y="360" width="10" height="20" as="geometry"/>
        </mxCell>
        <mxCell id="oeVIq9Vc4V-3KHkNWx2d-55" value="0" style="rounded=0;whiteSpace=wrap;html=1;fontFamily=mono;" parent="1" vertex="1">
          <mxGeometry x="320" y="360" width="10" height="20" as="geometry"/>
        </mxCell>
        <mxCell id="oeVIq9Vc4V-3KHkNWx2d-56" value="0" style="rounded=0;whiteSpace=wrap;html=1;fontFamily=mono;" parent="1" vertex="1">
          <mxGeometry x="330" y="360" width="10" height="20" as="geometry"/>
        </mxCell>
        <mxCell id="oeVIq9Vc4V-3KHkNWx2d-57" value="opc0: [0,0b111111]: 64 0-opr insts" style="text;html=1;align=left;verticalAlign=middle;resizable=0;points=[];autosize=1;strokeColor=none;fillColor=none;fontFamily=mono;" parent="1" vertex="1">
          <mxGeometry x="80" y="380" width="260" height="20" as="geometry"/>
        </mxCell>
        <mxCell id="oeVIq9Vc4V-3KHkNWx2d-58" value="3&lt;br&gt;0" style="text;html=1;align=left;verticalAlign=middle;resizable=0;points=[];autosize=1;strokeColor=none;fillColor=none;fontFamily=mono;" parent="1" vertex="1">
          <mxGeometry x="90" y="90" width="20" height="30" as="geometry"/>
        </mxCell>
        <mxCell id="oeVIq9Vc4V-3KHkNWx2d-59" value="2&lt;br&gt;9" style="text;html=1;align=left;verticalAlign=middle;resizable=0;points=[];autosize=1;strokeColor=none;fillColor=none;fontFamily=mono;" parent="1" vertex="1">
          <mxGeometry x="100" y="90" width="20" height="30" as="geometry"/>
        </mxCell>
        <mxCell id="oeVIq9Vc4V-3KHkNWx2d-60" value="2&lt;br&gt;8" style="text;html=1;align=left;verticalAlign=middle;resizable=0;points=[];autosize=1;strokeColor=none;fillColor=none;fontFamily=mono;" parent="1" vertex="1">
          <mxGeometry x="110" y="90" width="20" height="30" as="geometry"/>
        </mxCell>
        <mxCell id="oeVIq9Vc4V-3KHkNWx2d-61" value="2&lt;br&gt;7" style="text;html=1;align=left;verticalAlign=middle;resizable=0;points=[];autosize=1;strokeColor=none;fillColor=none;fontFamily=mono;" parent="1" vertex="1">
          <mxGeometry x="120" y="90" width="20" height="30" as="geometry"/>
        </mxCell>
        <mxCell id="oeVIq9Vc4V-3KHkNWx2d-62" value="2&lt;br&gt;4" style="text;html=1;align=left;verticalAlign=middle;resizable=0;points=[];autosize=1;strokeColor=none;fillColor=none;fontFamily=mono;" parent="1" vertex="1">
          <mxGeometry x="150" y="90" width="20" height="30" as="geometry"/>
        </mxCell>
        <mxCell id="oeVIq9Vc4V-3KHkNWx2d-63" value="2&lt;br&gt;3" style="text;html=1;align=left;verticalAlign=middle;resizable=0;points=[];autosize=1;strokeColor=none;fillColor=none;fontFamily=mono;" parent="1" vertex="1">
          <mxGeometry x="160" y="90" width="20" height="30" as="geometry"/>
        </mxCell>
        <mxCell id="oeVIq9Vc4V-3KHkNWx2d-66" value="1&lt;br&gt;8" style="text;html=1;align=left;verticalAlign=middle;resizable=0;points=[];autosize=1;strokeColor=none;fillColor=none;fontFamily=mono;" parent="1" vertex="1">
          <mxGeometry x="210" y="90" width="20" height="30" as="geometry"/>
        </mxCell>
        <mxCell id="oeVIq9Vc4V-3KHkNWx2d-67" value="1&lt;br&gt;7" style="text;html=1;align=left;verticalAlign=middle;resizable=0;points=[];autosize=1;strokeColor=none;fillColor=none;fontFamily=mono;" parent="1" vertex="1">
          <mxGeometry x="220" y="90" width="20" height="30" as="geometry"/>
        </mxCell>
        <mxCell id="oeVIq9Vc4V-3KHkNWx2d-68" value="1&lt;br&gt;2" style="text;html=1;align=left;verticalAlign=middle;resizable=0;points=[];autosize=1;strokeColor=none;fillColor=none;fontFamily=mono;" parent="1" vertex="1">
          <mxGeometry x="270" y="90" width="20" height="30" as="geometry"/>
        </mxCell>
        <mxCell id="oeVIq9Vc4V-3KHkNWx2d-69" value="1&lt;br&gt;1" style="text;html=1;align=left;verticalAlign=middle;resizable=0;points=[];autosize=1;strokeColor=none;fillColor=none;fontFamily=mono;" parent="1" vertex="1">
          <mxGeometry x="280" y="90" width="20" height="30" as="geometry"/>
        </mxCell>
        <mxCell id="oeVIq9Vc4V-3KHkNWx2d-70" value="0&lt;br&gt;6" style="text;html=1;align=left;verticalAlign=middle;resizable=0;points=[];autosize=1;strokeColor=none;fillColor=none;fontFamily=mono;" parent="1" vertex="1">
          <mxGeometry x="330" y="90" width="20" height="30" as="geometry"/>
        </mxCell>
        <mxCell id="oeVIq9Vc4V-3KHkNWx2d-72" value="0&lt;br&gt;5" style="text;html=1;align=left;verticalAlign=middle;resizable=0;points=[];autosize=1;strokeColor=none;fillColor=none;fontFamily=mono;" parent="1" vertex="1">
          <mxGeometry x="340" y="90" width="20" height="30" as="geometry"/>
        </mxCell>
        <mxCell id="oeVIq9Vc4V-3KHkNWx2d-73" value="0&lt;br&gt;0" style="text;html=1;align=left;verticalAlign=middle;resizable=0;points=[];autosize=1;strokeColor=none;fillColor=none;fontFamily=mono;" parent="1" vertex="1">
          <mxGeometry x="390" y="90" width="20" height="30" as="geometry"/>
        </mxCell>
        <mxCell id="oeVIq9Vc4V-3KHkNWx2d-74" value="&lt;b&gt;XA64 Instruction Encoding&lt;/b&gt;" style="text;html=1;align=center;verticalAlign=middle;resizable=0;points=[];autosize=1;strokeColor=none;fillColor=none;" parent="1" vertex="1">
          <mxGeometry x="160" y="480" width="170" height="20" as="geometry"/>
        </mxCell>
      </root>
    </mxGraphModel>
  </diagram>
</mxfile>
